<?xml version="1.0" encoding="UTF-8"?>
<svg width="53px" height="57px" viewBox="0 0 53 57" version="1.1" xmlns="http://www.w3.org/2000/svg" xmlns:xlink="http://www.w3.org/1999/xlink">
    <!-- Generator: Sketch 45.2 (43514) - http://www.bohemiancoding.com/sketch -->
    <title>Page 1</title>
    <desc>Created with Sketch.</desc>
    <defs></defs>
    <g id="Page-1" stroke="none" stroke-width="1" fill="none" fill-rule="evenodd">
        <g id="Artboard" transform="translate(-735.000000, -466.000000)">
            <g id="Page-1" transform="translate(735.000000, 465.000000)">
                <polygon id="Fill-1" fill="#EDC951" points="40.655 57.2051 45.925 57.2051 45.925 32.6151 40.655 32.6151"></polygon>
                <polygon id="Fill-2" fill="#89BC62" points="44.1459 4.5128 34.5079 4.5128 34.5079 16.5428 43.2889 25.2298 52.0709 16.5428 52.0709 4.5128"></polygon>
                <g id="Group-9" transform="translate(0.000000, 0.205100)">
                    <path d="M33.3714,14.0312 L40.8364,21.4142 L48.3014,14.0312 L48.3014,3.4292 L33.3714,3.4292 L33.3714,14.0312 Z M40.8364,24.5852 C40.5024,24.5852 40.1664,24.4582 39.9094,24.2042 L31.1284,15.5192 C30.8774,15.2702 30.7364,14.9342 30.7364,14.5812 L30.7364,2.1122 C30.7364,1.3852 31.3274,0.7952 32.0544,0.7952 L49.6184,0.7952 C50.3464,0.7952 50.9354,1.3852 50.9354,2.1122 L50.9354,14.5812 C50.9354,14.9342 50.7954,15.2702 50.5454,15.5192 L41.7634,24.2042 C41.5064,24.4582 41.1714,24.5852 40.8364,24.5852 L40.8364,24.5852 Z" id="Fill-3" fill="#000000"></path>
                    <path d="M48.301,14.0312 L45.666,16.6372 L45.666,3.4292 L48.301,3.4292 L48.301,14.0312 Z M33.371,3.4292 L36.884,3.4292 L36.884,17.5052 L33.371,14.0312 L33.371,3.4292 Z M43.031,3.4292 L43.031,19.2372 C43.031,19.2392 43.032,19.2392 43.032,19.2412 L40.836,21.4142 L39.311,19.9052 C39.431,19.7062 39.519,19.4872 39.519,19.2372 L39.519,3.4292 L43.031,3.4292 Z M39.519,53.4872 L42.154,53.4872 L42.154,31.5322 L39.519,31.5322 L39.519,53.4872 Z M49.618,0.7952 L32.054,0.7952 C31.327,0.7952 30.737,1.3852 30.737,2.1122 L30.737,14.5812 C30.737,14.9342 30.877,15.2702 31.128,15.5192 L39.519,23.8182 L39.519,28.8982 L38.201,28.8982 C37.475,28.8982 36.884,29.4882 36.884,30.2142 L36.884,54.8042 C36.884,55.5312 37.475,56.1212 38.201,56.1212 L43.471,56.1212 C44.198,56.1212 44.788,55.5312 44.788,54.8042 L44.788,30.2142 C44.788,29.4882 44.198,28.8982 43.471,28.8982 L42.154,28.8982 L42.154,23.8182 L50.545,15.5192 C50.795,15.2702 50.936,14.9342 50.936,14.5812 L50.936,2.1122 C50.936,1.3852 50.346,0.7952 49.618,0.7952 L49.618,0.7952 Z" id="Fill-5" fill="#394049"></path>
                    <path d="M14.3596,22.9516 L14.3596,39.7716 C14.2396,41.9116 14.6606,43.5126 15.5896,44.6916 C16.3396,45.4316 17.6896,45.7926 19.6896,45.9226 C20.0806,45.9416 22.6896,45.9916 23.7906,45.9226 L23.7906,51.6616 C22.5696,51.8026 21.6796,52.0716 19.2796,52.0716 C15.1306,52.0716 12.4396,51.1116 10.6606,49.2016 C8.6996,47.2626 7.7696,44.3716 7.3806,40.1816 L7.3806,22.9516 L0.0006,22.9516 L0.0006,15.9726 L7.3806,15.9726 L7.3806,4.9016 L14.3596,4.9016 L14.3596,15.9726 L23.7906,15.9726 L23.7906,22.9516 L14.3596,22.9516 Z" id="Fill-7" fill="#394049"></path>
                </g>
            </g>
        </g>
    </g>
</svg>