<?xml version="1.0" encoding="UTF-8"?>
<svg width="144px" height="18px" viewBox="0 0 144 18" version="1.1" xmlns="http://www.w3.org/2000/svg" xmlns:xlink="http://www.w3.org/1999/xlink">
    <!-- Generator: Sketch 45.2 (43514) - http://www.bohemiancoding.com/sketch -->
    <title>Group 11</title>
    <desc>Created with Sketch.</desc>
    <defs></defs>
    <g id="Page-1" stroke="none" stroke-width="1" fill="none" fill-rule="evenodd">
        <g id="PROV_WS2" transform="translate(-569.000000, -823.000000)">
            <g id="Group-10" transform="translate(568.000000, 822.000000)">
                <g id="Group-11">
                    <g id="Powered-by" font-size="14" font-family="AvenirNext-Regular, Avenir Next" fill="#4C4949" font-weight="normal">
                        <text>
                            <tspan x="0" y="14">Powered by</tspan>
                        </text>
                    </g>
                    <g id="logo_type-copy" transform="translate(78.000000, 1.000000)" fill-rule="nonzero">
                        <polygon id="Fill-16-Copy" fill="#8BCBCA" points="66.2367545 0 64.6865226 0 64.6865226 17.0431557 66.2367545 17.0431557"></polygon>
                        <path d="M37.4001566,8.86068157 C37.4001566,8.30462673 37.5001474,7.79979503 37.700132,7.34617132 C37.9001167,6.89254761 38.1708235,6.50477835 38.5122607,6.18285186 C38.8536979,5.86092536 39.2585388,5.61216772 39.7267955,5.43657144 C40.1950522,5.26097519 40.6925674,5.17317834 41.2193562,5.17317834 C41.746145,5.17317834 42.2436603,5.26097519 42.7119172,5.43657144 C43.1801737,5.61216772 43.5850146,5.86092536 43.9264518,6.18285186 C44.2678893,6.50477835 44.538596,6.89254761 44.7385807,7.34617132 C44.9385654,7.79979503 45.038556,8.30462673 45.038556,8.86068157 C45.038556,9.41673642 44.9385654,9.9240069 44.7385807,10.3825083 C44.538596,10.8410097 44.2678893,11.2336565 43.9264518,11.5604607 C43.5850146,11.8872649 43.1801737,12.1433389 42.7119172,12.3286905 C42.2436603,12.5140421 41.746145,12.6067166 41.2193562,12.6067166 C40.6925674,12.6067166 40.1950522,12.5140421 39.7267955,12.3286905 C39.2585388,12.1433389 38.8536979,11.8872649 38.5122607,11.5604607 C38.1708235,11.2336565 37.9001167,10.8410097 37.700132,10.3825083 C37.5001474,9.9240069 37.4001566,9.41673642 37.4001566,8.86068157 L37.4001566,8.86068157 Z M39.1853764,8.86068157 C39.1853764,9.13383132 39.226836,9.40697695 39.3097564,9.68012674 C39.3926769,9.95327648 39.5170557,10.1971565 39.6828967,10.4117742 C39.8487376,10.6263918 40.0584744,10.8019855 40.3121135,10.9385604 C40.5657525,11.0751352 40.868164,11.1434217 41.2193562,11.1434217 C41.5705489,11.1434217 41.8729603,11.0751352 42.1265993,10.9385604 C42.3802384,10.8019855 42.589975,10.6263918 42.755816,10.4117742 C42.921657,10.1971565 43.0460358,9.95327648 43.1289563,9.68012674 C43.2118768,9.40697695 43.2533362,9.13383132 43.2533362,8.86068157 C43.2533362,8.58753183 43.2118768,8.31682498 43.1289563,8.04855287 C43.0460358,7.7802808 42.921657,7.53883954 42.755816,7.3242219 C42.589975,7.10960423 42.3802384,6.93644938 42.1265993,6.80475221 C41.8729603,6.67305499 41.5705489,6.6072074 41.2193562,6.6072074 C40.868164,6.6072074 40.5657525,6.67305499 40.3121135,6.80475221 C40.0584744,6.93644938 39.8487376,7.10960423 39.6828967,7.3242219 C39.5170557,7.53883954 39.3926769,7.7802808 39.3097564,8.04855287 C39.226836,8.31682498 39.1853764,8.58753183 39.1853764,8.86068157 L39.1853764,8.86068157 Z" id="Type-something" fill="#37404A"></path>
                        <path d="M45.850639,5.37803965 L47.5334284,5.37803965 L47.5334284,6.54867557 L47.5626941,6.54867557 C47.7578013,6.13895097 48.0309469,5.80727408 48.3821392,5.55363505 C48.7333318,5.29999598 49.1430504,5.17317834 49.6113072,5.17317834 C49.6795946,5.17317834 49.7527584,5.17561716 49.8308014,5.18049484 C49.9088439,5.18537252 49.9771305,5.19756649 50.0356624,5.21707721 L50.0356624,6.82670162 C49.9185982,6.79743559 49.8186077,6.77792515 49.7356872,6.76816984 C49.6527667,6.75841448 49.5722864,6.75353688 49.4942434,6.75353688 C49.0942744,6.75353688 48.7723527,6.8267009 48.5284688,6.97303111 C48.2845852,7.11936132 48.0943588,7.29495498 47.957784,7.4998173 C47.8212087,7.70467958 47.7285343,7.91441643 47.6797579,8.12903411 C47.6309811,8.34365175 47.6065929,8.51436781 47.6065929,8.64118735 L47.6065929,12.4018553 L45.850639,12.4018553 L45.850639,5.37803965 Z" id="r" fill="#37404A"></path>
                        <path d="M59.6577738,5.17317834 C60.1162752,5.17317834 60.508922,5.25365877 60.8357265,5.41462202 C61.1625306,5.57558527 61.4307987,5.7877609 61.6405385,6.05115533 C61.8502783,6.31454972 62.0039228,6.61696098 62.1014764,6.95839815 C62.19903,7.29983536 62.247806,7.65102261 62.247806,8.0119705 L62.247806,12.4018553 L60.491852,12.4018553 L60.491852,8.50949078 C60.491852,8.30462846 60.4772193,8.09001401 60.4479532,7.86564101 C60.418687,7.64126802 60.3552784,7.43884758 60.2577248,7.25837362 C60.1601712,7.0778997 60.0260373,6.92913284 59.8553188,6.81206867 C59.6846002,6.69500449 59.4577915,6.63647327 59.1748867,6.63647327 C58.901737,6.63647327 58.6676118,6.69500449 58.472505,6.81206867 C58.2773979,6.92913284 58.1164373,7.08033847 57.9896175,7.26569012 C57.8627982,7.45104172 57.7701238,7.65833975 57.7115915,7.88759043 C57.6530596,8.11684114 57.6237938,8.34364957 57.6237938,8.56802256 L57.6237938,12.4018553 L55.8678402,12.4018553 L55.8678402,8.15829998 C55.8678402,7.71930931 55.7629717,7.35592805 55.5532315,7.06814526 C55.3434917,6.78036252 55.0142535,6.63647327 54.5655076,6.63647327 C54.302113,6.63647327 54.0728658,6.69256571 53.877759,6.80475221 C53.6826519,6.91693871 53.5241298,7.06082792 53.402188,7.2364242 C53.2802463,7.41202045 53.1875719,7.61444093 53.124162,7.8436916 C53.0607521,8.07294227 53.0290478,8.30462834 53.0290478,8.53875669 L53.0290478,12.4018553 L51.2730938,12.4018553 L51.2730938,5.37803965 L52.9412501,5.37803965 L52.9412501,6.50477674 L52.9705163,6.50477674 C53.0485588,6.32918046 53.1534273,6.16334203 53.2851246,6.00725646 C53.4168215,5.85117089 53.572905,5.70972046 53.7533791,5.58290092 C53.9338528,5.45608139 54.1411508,5.3560906 54.3752792,5.28292549 C54.6094077,5.20976035 54.8679203,5.17317834 55.1508255,5.17317834 C55.6971249,5.17317834 56.1507418,5.29511838 56.51169,5.53900209 C56.8726378,5.7828858 57.150661,6.10480746 57.3457678,6.50477674 C57.5798962,6.07554143 57.8920627,5.74630335 58.2822767,5.51705268 C58.6724906,5.28780196 59.1309851,5.17317834 59.6577738,5.17317834 L59.6577738,5.17317834 Z" id="m" fill="#37404A"></path>
                        <path d="M33.30782,6.78280275 L31.9762216,6.78280275 L31.9762216,5.37803965 L33.30782,5.37803965 L33.30782,4.33910026 C33.30782,3.91962027 33.3541572,3.51721819 33.446833,3.13188193 C33.5395088,2.74654568 33.6955921,2.40755241 33.9150874,2.11489196 C34.1345827,1.82223151 34.4248,1.59054547 34.7857479,1.41982687 C35.1466958,1.24910828 35.6003127,1.16375026 36.1466121,1.16375026 C36.3417191,1.16375026 36.5051188,1.17106666 36.636816,1.18569969 C36.7685131,1.20033271 36.9026472,1.22715951 37.0392221,1.26618091 L36.9221585,2.75874173 C36.824605,2.72947569 36.7197366,2.70508768 36.6075501,2.68557699 C36.4953636,2.66606629 36.3758623,2.65631108 36.2490428,2.65631108 C35.9954037,2.65631108 35.7905445,2.70508709 35.634459,2.80264058 C35.4783734,2.90019406 35.3588721,3.02701169 35.2759517,3.18309726 C35.1930312,3.33918283 35.1369388,3.50989886 35.1076728,3.69525048 C35.0784067,3.8806021 35.0637739,4.06107332 35.0637739,4.2366696 L35.0637739,5.37803965 L36.6880313,5.37803965 L36.6880313,6.78280275 L35.0637739,6.78280275 L35.0637739,12.4018553 L33.30782,12.4018553 L33.30782,6.78280275 Z" id="f" fill="#37404A"></path>
                        <path d="M29.3148781,8.1875659 C29.3148781,7.9631929 29.2831737,7.74857845 29.2197639,7.54371613 C29.1563542,7.33885381 29.0563633,7.15838259 28.9197884,7.00229702 C28.7832136,6.84621145 28.6100587,6.72183263 28.4003187,6.62915681 C28.1905788,6.53648099 27.9442599,6.49014378 27.6613548,6.49014378 C27.134566,6.49014378 26.6882655,6.64866583 26.32244,6.96571465 C25.9566144,7.28276347 25.754194,7.69004316 25.7151726,8.1875659 L29.3148781,8.1875659 Z M31.070832,8.97774515 L31.070832,9.21187233 C31.070832,9.28991511 31.0659544,9.36795673 31.0561991,9.44599955 L25.7151726,9.44599955 C25.7346833,9.69963858 25.8005309,9.93132465 25.9127174,10.1410646 C26.0249039,10.3508046 26.1736707,10.5312759 26.3590223,10.6824838 C26.5443739,10.8336916 26.7541108,10.9531929 26.9882391,11.040991 C27.2223675,11.1287892 27.4662476,11.1726875 27.7198866,11.1726875 C28.1588773,11.1726875 28.529575,11.0922071 28.8319908,10.9312439 C29.1344066,10.7702806 29.3831642,10.5483498 29.5782712,10.2654447 L30.7489071,11.2019535 C30.0562774,12.1384669 29.0514916,12.6067166 27.7345196,12.6067166 C27.1882201,12.6067166 26.6858272,12.5213586 26.2273258,12.35064 C25.7688244,12.1799214 25.3713,11.9384801 25.0347404,11.626309 C24.6981809,11.3141378 24.4347905,10.9312462 24.2445612,10.4776224 C24.0543319,10.0239988 23.9592187,9.50941184 23.9592187,8.93384632 C23.9592187,8.36803611 24.0543319,7.85344921 24.2445612,7.39007015 C24.4347905,6.92669112 24.6957421,6.53160545 25.027424,6.20480127 C25.3591058,5.8779971 25.7517527,5.62436186 26.2053764,5.44388793 C26.6590001,5.26341397 27.149199,5.17317834 27.6759878,5.17317834 C28.1637552,5.17317834 28.6149333,5.25365877 29.0295356,5.41462202 C29.4441379,5.57558527 29.8026415,5.81458771 30.1050574,6.13163653 C30.4074731,6.44868535 30.6440368,6.84377102 30.8147554,7.31690541 C30.985474,7.79003983 31.070832,8.34364751 31.070832,8.97774515 L31.070832,8.97774515 Z" id="e" fill="#37404A"></path>
                        <path d="M17.2135775,5.37803965 L17.2135775,6.35844726 L17.2574764,6.35844726 C17.3452745,6.22187236 17.4598981,6.08286075 17.6013507,5.94140818 C17.7428032,5.79995564 17.9159581,5.673138 18.1208204,5.56095151 C18.3256827,5.44876501 18.5573688,5.3560906 18.8158855,5.28292549 C19.0744022,5.20976035 19.3646195,5.17317834 19.686546,5.17317834 C20.1840687,5.17317834 20.6425632,5.26829157 21.0620432,5.45852085 C21.4815232,5.64875017 21.8424656,5.90970179 22.1448814,6.24138364 C22.4472972,6.5730655 22.6814221,6.96327357 22.847263,7.4120196 C23.0131039,7.86076559 23.0960231,8.34364812 23.0960231,8.86068157 C23.0960231,9.37771503 23.0155427,9.86303634 22.8545795,10.31666 C22.6936162,10.7702837 22.464369,11.1653694 22.1668309,11.5019289 C21.8692927,11.8384884 21.5083503,12.1067565 21.0839926,12.3067411 C20.659635,12.5067258 20.1791913,12.6067166 19.6426471,12.6067166 C19.1451243,12.6067166 18.6890687,12.5042869 18.2744664,12.2994246 C17.8598641,12.0945623 17.5403812,11.8165391 17.3160082,11.4653465 L17.2867423,11.4653465 L17.2867423,15.9137631 L15.5307884,15.9137631 L15.5307884,5.37803965 L17.2135775,5.37803965 Z M21.3108033,8.86068157 C21.3108033,8.58753183 21.2693437,8.31682498 21.1864233,8.04855287 C21.1035028,7.7802808 20.979124,7.53883954 20.813283,7.3242219 C20.6474421,7.10960423 20.4377053,6.93644938 20.1840662,6.80475221 C19.9304272,6.67305499 19.6328935,6.6072074 19.2914563,6.6072074 C18.9695298,6.6072074 18.6817514,6.67549381 18.4281123,6.81206867 C18.1744733,6.94864356 17.95742,7.12423718 17.7769461,7.33885486 C17.5964721,7.5534725 17.4598993,7.79735254 17.3672235,8.07050232 C17.2745477,8.34365207 17.2282105,8.6167977 17.2282105,8.88994745 C17.2282105,9.16309723 17.2745477,9.43380409 17.3672235,9.70207615 C17.4598993,9.97034822 17.5964721,10.2117895 17.7769461,10.4264071 C17.95742,10.6410248 18.1744733,10.8141796 18.4281123,10.9458768 C18.6817514,11.077574 18.9695298,11.1434217 19.2914563,11.1434217 C19.6328935,11.1434217 19.9304272,11.0751352 20.1840662,10.9385604 C20.4377053,10.8019855 20.6474421,10.6263918 20.813283,10.4117742 C20.979124,10.1971565 21.1035028,9.95327648 21.1864233,9.68012674 C21.2693437,9.40697695 21.3108033,9.13383132 21.3108033,8.86068157 L21.3108033,8.86068157 Z" id="p" fill="#37404A"></path>
                        <path d="M6.87070408,5.37803965 L8.81688633,5.37803965 L10.7777015,10.4849389 L10.8069675,10.4849389 L12.5482884,5.37803965 L14.3774071,5.37803965 L11.0557276,13.909049 C10.9289081,14.2309755 10.7923352,14.5163152 10.646005,14.7650766 C10.4996748,15.013838 10.3240811,15.2235748 10.1192188,15.3942934 C9.9143565,15.565012 9.67291528,15.6942684 9.39488786,15.7820666 C9.11686043,15.8698647 8.78274476,15.9137631 8.39253084,15.9137631 C8.24620059,15.9137631 8.09743377,15.9064467 7.94622588,15.8918137 C7.79501795,15.8771807 7.64137354,15.8503539 7.48528797,15.8113325 L7.63161746,14.2895058 C7.74868164,14.3285271 7.86330526,14.355354 7.97549176,14.369987 C8.08767825,14.38462 8.19254668,14.3919364 8.29010018,14.3919364 C8.47545178,14.3919364 8.63153501,14.3699872 8.75835455,14.3260881 C8.88517408,14.2821891 8.99248129,14.2139026 9.08027943,14.1212268 C9.16807757,14.028551 9.24611919,13.9139274 9.31440661,13.7773525 C9.38269404,13.6407776 9.45585806,13.4798168 9.53390084,13.2944652 L9.88509164,12.4018553 L6.87070408,5.37803965 Z" id="y" fill="#37404A"></path>
                        <polygon id="T" fill="#37404A" points="3.23388178 3.65135163 0.0585317971 3.65135163 0.0585317971 2.04172722 8.25298338 2.04172722 8.25298338 3.65135163 5.07763338 3.65135163 5.07763338 12.4018553 3.23388178 12.4018553"></polygon>
                    </g>
                </g>
            </g>
        </g>
    </g>
</svg>