<?xml version="1.0" encoding="UTF-8"?>
<svg width="130px" height="49px" viewBox="0 0 130 49" version="1.1" xmlns="http://www.w3.org/2000/svg" xmlns:xlink="http://www.w3.org/1999/xlink">
    <!-- Generator: Sketch 45.2 (43514) - http://www.bohemiancoding.com/sketch -->
    <title>Group 11</title>
    <desc>Created with Sketch.</desc>
    <defs>
        <filter x="-5.7%" y="-11.9%" width="111.5%" height="133.3%" filterUnits="objectBoundingBox" id="filter-1">
            <feOffset dx="0" dy="2" in="SourceAlpha" result="shadowOffsetOuter1"></feOffset>
            <feGaussianBlur stdDeviation="2" in="shadowOffsetOuter1" result="shadowBlurOuter1"></feGaussianBlur>
            <feColorMatrix values="0 0 0 0 0   0 0 0 0 0   0 0 0 0 0  0 0 0 0.5 0" type="matrix" in="shadowBlurOuter1" result="shadowMatrixOuter1"></feColorMatrix>
            <feMerge>
                <feMergeNode in="shadowMatrixOuter1"></feMergeNode>
                <feMergeNode in="SourceGraphic"></feMergeNode>
            </feMerge>
        </filter>
    </defs>
    <g id="Page-1" stroke="none" stroke-width="1" fill="none" fill-rule="evenodd">
        <g id="PROV_EditMenu" transform="translate(-575.000000, -26.000000)">
            <g id="Group-11" filter="url(#filter-1)" transform="translate(579.000000, 27.000000)">
                <polygon id="Fill-1" fill="#EDC951" points="18.5632 33.4359 17.5762 36.5859 12.8732 36.5859 18.5632 20.1279 23.5002 20.1279 29.1902 36.5859 24.4882 36.5859 23.5002 33.4359"></polygon>
                <path d="M19.4158,23.1019 L18.0518,27.8289 L20.7788,27.8289 L19.4158,23.1019 Z M16.9468,31.5669 L15.9598,34.7169 L11.2568,34.7169 L16.9468,18.2589 L21.8848,18.2589 L27.5748,34.7169 L22.8718,34.7169 L21.8848,31.5669 L16.9468,31.5669 Z" id="Fill-2" fill="#394049"></path>
                <path d="M35.2995,33.1204 C36.7575,33.1204 37.6035,32.0384 37.6035,30.5104 C37.6035,28.9344 36.7335,27.9244 35.2995,27.9244 C33.7945,27.9244 33.0185,29.0994 33.0185,30.5104 C33.0185,32.1554 33.9365,33.1204 35.2995,33.1204 L35.2995,33.1204 Z M28.5985,24.3034 L32.8305,24.3034 L32.8305,25.1014 C33.3005,24.6324 34.3825,23.9974 36.0055,23.9974 C39.6255,23.9974 42.1655,26.7004 42.1655,30.5104 C42.1655,34.3424 39.9075,37.0224 36.3105,37.0224 C34.7125,37.0224 33.6065,36.3174 33.1595,35.9414 L33.1595,41.1134 L28.5985,41.1134 L28.5985,24.3034 Z" id="Fill-3" fill="#394049"></path>
                <path d="M50.4382,33.1204 C51.8962,33.1204 52.7422,32.0384 52.7422,30.5104 C52.7422,28.9344 51.8722,27.9244 50.4382,27.9244 C48.9332,27.9244 48.1572,29.0994 48.1572,30.5104 C48.1572,32.1554 49.0742,33.1204 50.4382,33.1204 L50.4382,33.1204 Z M43.7372,24.3034 L47.9692,24.3034 L47.9692,25.1014 C48.4392,24.6324 49.5212,23.9974 51.1432,23.9974 C54.7642,23.9974 57.3042,26.7004 57.3042,30.5104 C57.3042,34.3424 55.0462,37.0224 51.4492,37.0224 C49.8502,37.0224 48.7452,36.3174 48.2982,35.9414 L48.2982,41.1134 L43.7372,41.1134 L43.7372,24.3034 Z" id="Fill-5" fill="#394049"></path>
                <path d="M66.0959,28.9349 C66.0489,28.3709 65.5789,27.5939 64.5679,27.5939 C63.4859,27.5939 63.0869,28.4639 63.0389,28.9349 L66.0959,28.9349 Z M64.4739,23.9979 C68.5649,23.9979 70.7279,26.5369 70.7279,30.8859 C70.7279,31.1449 70.7039,31.4739 70.6809,31.7089 L62.9219,31.7089 C63.1569,32.6729 63.9569,33.2139 65.0849,33.2139 C66.2369,33.2139 67.0839,32.4619 67.3189,32.1089 L70.4219,34.2719 C70.1399,34.8829 68.3999,37.0229 65.0139,37.0229 C60.7589,37.0229 58.2429,33.9659 58.2429,30.3449 C58.2429,26.8189 60.6649,23.9979 64.4739,23.9979 L64.4739,23.9979 Z" id="Fill-7" fill="#394049"></path>
                <path d="M74.6467,19.9642 L79.0907,19.9642 L79.0907,22.5732 L81.0887,22.5732 L81.0887,26.1712 L79.0907,26.1712 L79.0907,30.2382 C79.0907,31.1092 80.0077,31.2262 80.7127,31.2262 C80.8777,31.2262 81.1597,31.2022 81.1597,31.2022 L81.1597,35.0352 C81.1597,35.0352 80.6427,35.1762 79.5137,35.1762 C76.3157,35.1762 74.5287,33.6242 74.5287,30.2852 L74.5287,26.1712 L73.3537,26.1712 L73.3537,22.5732 L74.6467,22.5732 L74.6467,19.9642 Z" id="Fill-9" fill="#89BC62"></path>
                <path d="M72.6863,21.6927 L77.1303,21.6927 L77.1303,24.3027 L79.1283,24.3027 L79.1283,27.9007 L77.1303,27.9007 L77.1303,31.9677 C77.1303,32.8377 78.0473,32.9557 78.7523,32.9557 C78.9173,32.9557 79.1993,32.9317 79.1993,32.9317 L79.1993,36.7637 C79.1993,36.7637 78.6823,36.9057 77.5533,36.9057 C74.3553,36.9057 72.5683,35.3537 72.5683,32.0147 L72.5683,27.9007 L71.3933,27.9007 L71.3933,24.3027 L72.6863,24.3027 L72.6863,21.6927 Z" id="Fill-11" fill="#394049"></path>
                <polygon id="Fill-13" fill="#394049" points="82.9001 40.9261 84.5691 36.2471 79.9611 24.3031 84.8511 24.3031 86.6381 30.7221 88.5431 24.3031 93.2921 24.3031 87.1791 40.9261"></polygon>
                <path d="M100.9548,33.1204 C102.4128,33.1204 103.2588,32.0384 103.2588,30.5104 C103.2588,28.9344 102.3888,27.9244 100.9548,27.9244 C99.4498,27.9244 98.6738,29.0994 98.6738,30.5104 C98.6738,32.1554 99.5908,33.1204 100.9548,33.1204 L100.9548,33.1204 Z M94.2538,24.3034 L98.4858,24.3034 L98.4858,25.1014 C98.9558,24.6324 100.0378,23.9974 101.6598,23.9974 C105.2808,23.9974 107.8198,26.7004 107.8198,30.5104 C107.8198,34.3424 105.5628,37.0224 101.9648,37.0224 C100.3668,37.0224 99.2618,36.3174 98.8148,35.9414 L98.8148,41.1134 L94.2538,41.1134 L94.2538,24.3034 Z" id="Fill-15" fill="#394049"></path>
                <path d="M116.613,28.9349 C116.566,28.3709 116.096,27.5939 115.085,27.5939 C114.003,27.5939 113.604,28.4639 113.556,28.9349 L116.613,28.9349 Z M114.99,23.9979 C119.082,23.9979 121.245,26.5369 121.245,30.8859 C121.245,31.1449 121.221,31.4739 121.198,31.7089 L113.439,31.7089 C113.674,32.6729 114.473,33.2139 115.602,33.2139 C116.754,33.2139 117.601,32.4619 117.836,32.1089 L120.939,34.2719 C120.657,34.8829 118.917,37.0229 115.531,37.0229 C111.276,37.0229 108.76,33.9659 108.76,30.3449 C108.76,26.8189 111.182,23.9979 114.99,23.9979 L114.99,23.9979 Z" id="Fill-17" fill="#394049"></path>
                <g id="Group-10" transform="translate(0.000000, 0.114000)">
                    <polygon id="Fill-19" fill="#EDC951" points="0.8747 27.8521 3.0487 30.0261 13.1957 19.8791 11.0207 17.7061"></polygon>
                    <polygon id="Fill-21" fill="#89BC62" points="24.0574 7.5499 20.0804 3.5729 15.1164 8.5369 15.1564 15.7449 22.3644 15.7849 27.3284 10.8209"></polygon>
                    <path d="M21.76,13.2765 L19.598,13.2645 L25.048,7.8155 L26.135,8.9015 L21.76,13.2765 Z M19.974,2.7415 L21.424,4.1915 L15.615,9.9995 L15.6,7.1165 L19.974,2.7415 Z M23.96,6.7275 L17.438,13.2505 C17.437,13.2515 17.437,13.2525 17.436,13.2525 L15.634,13.2425 L15.627,11.9905 C15.758,11.9585 15.885,11.9035 15.988,11.8005 L22.511,5.2785 L23.96,6.7275 Z M2.943,27.0205 L1.856,25.9335 L10.915,16.8745 L12.002,17.9615 L2.943,27.0205 Z M20.518,1.1105 C20.218,0.8115 19.731,0.8115 19.431,1.1105 L14.285,6.2565 C14.14,6.4015 14.059,6.5985 14.06,6.8045 L14.098,13.6915 L12.002,15.7865 L11.459,15.2435 C11.158,14.9435 10.672,14.9435 10.371,15.2435 L0.225,25.3905 C-0.075,25.6905 -0.075,26.1775 0.225,26.4775 L2.399,28.6515 C2.699,28.9515 3.186,28.9515 3.487,28.6515 L13.633,18.5045 C13.933,18.2045 13.933,17.7175 13.633,17.4175 L13.089,16.8745 L15.185,14.7775 L22.072,14.8165 C22.278,14.8175 22.474,14.7355 22.62,14.5905 L27.765,9.4455 C28.065,9.1455 28.065,8.6585 27.765,8.3585 L20.518,1.1105 Z" id="Fill-25" fill="#394049"></path>
                </g>
            </g>
        </g>
    </g>
</svg>